<mxfile host="Electron" agent="Mozilla/5.0 (Windows NT 10.0; Win64; x64) AppleWebKit/537.36 (KHTML, like Gecko) draw.io/24.7.17 Chrome/128.0.6613.36 Electron/32.0.1 Safari/537.36" version="24.7.17">
  <diagram name="PÃ¡gina-1" id="kKBKMEyVlORLd3pp8Gom">
    <mxGraphModel dx="1434" dy="836" grid="1" gridSize="10" guides="1" tooltips="1" connect="1" arrows="1" fold="1" page="1" pageScale="1" pageWidth="827" pageHeight="1169" math="0" shadow="0">
      <root>
        <mxCell id="0" />
        <mxCell id="1" parent="0" />
        <mxCell id="Upk1R_LHM_AzDDc6ebxE-3" value="SARM" style="swimlane;whiteSpace=wrap;html=1;fillColor=#1ba1e2;fontColor=#ffffff;strokeColor=#006EAF;startSize=23;" parent="1" vertex="1">
          <mxGeometry x="160" y="60" width="426" height="380" as="geometry" />
        </mxCell>
        <mxCell id="Upk1R_LHM_AzDDc6ebxE-4" value="SPA" style="shape=folder;fontStyle=1;spacingTop=10;tabWidth=40;tabHeight=14;tabPosition=left;html=1;whiteSpace=wrap;fillColor=#1ba1e2;fontColor=#ffffff;strokeColor=#006EAF;" parent="Upk1R_LHM_AzDDc6ebxE-3" vertex="1">
          <mxGeometry x="36" y="60" width="124" height="80" as="geometry" />
        </mxCell>
        <mxCell id="Upk1R_LHM_AzDDc6ebxE-6" value="Planning" style="shape=folder;fontStyle=1;spacingTop=10;tabWidth=40;tabHeight=14;tabPosition=left;html=1;whiteSpace=wrap;fillColor=#1ba1e2;fontColor=#ffffff;strokeColor=#006EAF;" parent="Upk1R_LHM_AzDDc6ebxE-3" vertex="1">
          <mxGeometry x="269" y="220" width="124" height="80" as="geometry" />
        </mxCell>
        <mxCell id="Upk1R_LHM_AzDDc6ebxE-8" value="MastersData" style="shape=folder;fontStyle=1;spacingTop=10;tabWidth=40;tabHeight=14;tabPosition=left;html=1;whiteSpace=wrap;fillColor=#1ba1e2;fontColor=#ffffff;strokeColor=#006EAF;" parent="Upk1R_LHM_AzDDc6ebxE-3" vertex="1">
          <mxGeometry x="36" y="220" width="124" height="80" as="geometry" />
        </mxCell>
        <mxCell id="Upk1R_LHM_AzDDc6ebxE-25" value="&lt;div&gt;&lt;br&gt;&lt;/div&gt;&lt;div&gt;&lt;br&gt;&lt;/div&gt;" style="endArrow=open;endSize=12;dashed=1;html=1;rounded=0;exitX=0;exitY=0;exitDx=0;exitDy=47;exitPerimeter=0;entryX=0;entryY=0;entryDx=124;entryDy=47;entryPerimeter=0;" parent="Upk1R_LHM_AzDDc6ebxE-3" source="Upk1R_LHM_AzDDc6ebxE-6" target="Upk1R_LHM_AzDDc6ebxE-8" edge="1">
          <mxGeometry width="160" relative="1" as="geometry">
            <mxPoint x="170" y="107" as="sourcePoint" />
            <mxPoint x="169" y="268" as="targetPoint" />
          </mxGeometry>
        </mxCell>
        <mxCell id="Upk1R_LHM_AzDDc6ebxE-37" value="&lt;div&gt;&lt;br&gt;&lt;/div&gt;&lt;div&gt;&lt;br&gt;&lt;/div&gt;" style="endArrow=open;endSize=12;dashed=1;html=1;rounded=0;exitX=0.5;exitY=1;exitDx=0;exitDy=0;exitPerimeter=0;entryX=0.511;entryY=0.188;entryDx=0;entryDy=0;entryPerimeter=0;" parent="Upk1R_LHM_AzDDc6ebxE-3" source="Upk1R_LHM_AzDDc6ebxE-4" target="Upk1R_LHM_AzDDc6ebxE-8" edge="1">
          <mxGeometry width="160" relative="1" as="geometry">
            <mxPoint x="170" y="140" as="sourcePoint" />
            <mxPoint x="98" y="230" as="targetPoint" />
          </mxGeometry>
        </mxCell>
      </root>
    </mxGraphModel>
  </diagram>
</mxfile>
